<svg width="24" height="24" viewBox="0 0 24 24" fill="none" xmlns="http://www.w3.org/2000/svg">
<path fill-rule="evenodd" clip-rule="evenodd" d="M20 12C20 7.58207 16.4179 4 12 4C7.58207 4 4 7.58207 4 12C4 15.9927 6.92508 19.3024 10.7501 19.9033V14.3131H8.71832V12H10.7501V10.2371C10.7501 8.23228 11.9449 7.12414 13.7719 7.12414C14.6471 7.12414 15.5629 7.28051 15.5629 7.28051V9.24932H14.5538C13.5604 9.24932 13.2499 9.86583 13.2499 10.4992V11.9999H15.4683L15.114 14.313H13.2498V19.9032C17.0749 19.3036 19.9999 15.9938 19.9999 11.9999L20 12Z" fill="#344054"/>
<path fill-rule="evenodd" clip-rule="evenodd" d="M15.1139 14.3119L15.4683 11.9988H13.2498V10.4981C13.2498 9.86586 13.5592 9.24824 14.5537 9.24824H15.5629V7.27942C15.5629 7.27942 14.6472 7.12305 13.7718 7.12305C11.9448 7.12305 10.7501 8.23009 10.7501 10.236V11.9989H8.71826V14.312H10.7501V19.9022C11.1573 19.9662 11.5747 19.9989 12 19.9989C12.4252 19.9989 12.8426 19.9651 13.2498 19.9022V14.312H15.114L15.1139 14.3119Z" fill="#FEFEFE"/>
</svg>
