<svg width="20" height="20" viewBox="0 0 20 20" fill="none" xmlns="http://www.w3.org/2000/svg">
<path d="M7.57501 7.49935C7.77093 6.94241 8.15763 6.47277 8.66663 6.17363C9.17564 5.87448 9.77409 5.76513 10.356 5.86494C10.9379 5.96475 11.4657 6.26729 11.8459 6.71896C12.2261 7.17063 12.4342 7.74228 12.4333 8.33268C12.4333 9.99935 9.93334 10.8327 9.93334 10.8327M10 14.166H10.0083M18.3333 9.99935C18.3333 14.6017 14.6024 18.3327 10 18.3327C5.39763 18.3327 1.66667 14.6017 1.66667 9.99935C1.66667 5.39698 5.39763 1.66602 10 1.66602C14.6024 1.66602 18.3333 5.39698 18.3333 9.99935Z" stroke="#98A2B3" stroke-width="1.33333" stroke-linecap="round" stroke-linejoin="round"/>
</svg>
