<svg width="24" height="24" viewBox="0 0 24 24" fill="none" xmlns="http://www.w3.org/2000/svg">
<path d="M17.6333 17.6312H15.2624V13.9184C15.2624 13.0331 15.2466 11.8934 14.0294 11.8934C12.7946 11.8934 12.6057 12.858 12.6057 13.8539V17.6309H10.2349V9.99599H12.5109V11.0394H12.5427C12.7705 10.6499 13.0996 10.3296 13.4951 10.1124C13.8905 9.8952 14.3375 9.78934 14.7883 9.80608C17.1912 9.80608 17.6343 11.3866 17.6343 13.4428L17.6333 17.6312ZM7.55988 8.95235C7.28777 8.9524 7.02175 8.87176 6.79548 8.72062C6.5692 8.56949 6.39283 8.35465 6.28866 8.10327C6.18449 7.85189 6.15719 7.57527 6.21022 7.30839C6.26326 7.04151 6.39425 6.79633 6.58663 6.6039C6.779 6.41145 7.02412 6.28038 7.29099 6.22724C7.55786 6.1741 7.83448 6.20131 8.08589 6.30538C8.33731 6.40947 8.55221 6.58577 8.70342 6.812C8.85464 7.03821 8.93538 7.3042 8.93543 7.5763C8.93546 7.75698 8.8999 7.93588 8.83079 8.10281C8.76167 8.26975 8.66037 8.42143 8.53265 8.54921C8.40492 8.67699 8.25326 8.77836 8.08634 8.84753C7.91944 8.9167 7.74055 8.95231 7.55988 8.95235ZM8.74526 17.6312H6.37202V9.99599H8.74526V17.6312ZM18.8152 3.99914H5.1807C4.87124 3.99564 4.57303 4.11516 4.35164 4.33141C4.13025 4.54766 4.00378 4.84296 4 5.15242V18.8435C4.00365 19.1531 4.13004 19.4485 4.35143 19.6651C4.57281 19.8816 4.87108 20.0013 5.1807 19.998H18.8152C19.1254 20.0019 19.4245 19.8824 19.6468 19.666C19.869 19.4496 19.9962 19.1537 20.0006 18.8435V5.15144C19.9961 4.84136 19.8688 4.54572 19.6466 4.32948C19.4243 4.11323 19.1253 3.99406 18.8152 3.99815" fill="#344054"/>
</svg>
