<svg width="24" height="24" viewBox="0 0 24 24" fill="none" xmlns="http://www.w3.org/2000/svg">
<path d="M4 19.998C3.45 19.998 2.97933 19.8024 2.588 19.411C2.19667 19.0197 2.00067 18.5487 2 17.998V5.99805C2 5.44805 2.196 4.97738 2.588 4.58605C2.98 4.19471 3.45067 3.99871 4 3.99805H20C20.55 3.99805 21.021 4.19405 21.413 4.58605C21.805 4.97805 22.0007 5.44871 22 5.99805V17.998C22 18.548 21.8043 19.019 21.413 19.411C21.0217 19.803 20.5507 19.9987 20 19.998H4ZM12 12.998L4 7.99805V17.998H20V7.99805L12 12.998ZM12 10.998L20 5.99805H4L12 10.998ZM4 7.99805V5.99805V17.998V7.99805Z" fill="#344054"/>
</svg>
